<?xml version="1.0" standalone="no"?>
<!DOCTYPE svg PUBLIC "-//W3C//DTD SVG 20010904//EN"
 "http://www.w3.org/TR/2001/REC-SVG-20010904/DTD/svg10.dtd">
<svg version="1.0" xmlns="http://www.w3.org/2000/svg"
 width="73.000000pt" height="62.000000pt" viewBox="0 0 73.000000 62.000000"
 preserveAspectRatio="xMidYMid meet">

<g transform="translate(0.000000,62.000000) scale(0.100000,-0.100000)"
fill="#000000" stroke="none">
<path d="M300 614 c-103 -20 -145 -51 -216 -159 -30 -46 -61 -88 -69 -95 -12
-10 -15 -45 -15 -186 l0 -174 310 0 310 0 0 29 c0 16 -7 63 -16 105 -23 114
-19 135 41 173 96 61 95 47 16 143 -77 94 -112 124 -172 145 -44 16 -150 26
-189 19z"/>
</g>
</svg>
