<?xml version="1.0" standalone="no"?>
<!DOCTYPE svg PUBLIC "-//W3C//DTD SVG 20010904//EN"
 "http://www.w3.org/TR/2001/REC-SVG-20010904/DTD/svg10.dtd">
<svg version="1.0" xmlns="http://www.w3.org/2000/svg"
 width="72.000000pt" height="68.000000pt" viewBox="0 0 72.000000 68.000000"
 preserveAspectRatio="xMidYMid meet">

<g transform="translate(0.000000,68.000000) scale(0.100000,-0.100000)"
fill="#000000" stroke="none">
<path d="M236 666 c-51 -19 -104 -70 -129 -126 -31 -69 -35 -224 -8 -310 11
-35 19 -66 17 -68 -2 -2 -29 3 -60 11 l-56 15 0 -94 0 -94 246 0 245 0 -7 23
c-14 47 -37 80 -93 135 -51 51 -59 63 -65 108 -8 62 3 94 40 119 38 25 98 23
159 -4 56 -25 130 -37 170 -27 23 6 25 9 14 22 -7 9 -44 31 -81 50 -85 43
-139 91 -181 160 -46 78 -129 110 -211 80z"/>
</g>
</svg>
