<svg xmlns="http://www.w3.org/2000/svg" version="1.1" viewBox="0 0 200 200"><g fill="#000" fill-rule="evenodd" stroke="#000"><path d="M51.873 130.59c-1.39 1.962-1.2 3.153-4.296 5.605s-4.802 1.752-8.087 4.204-2.527 3.223-5.054 5.605-2.338 1.471-5.054 3.923-3.349 2.593-5.813 5.885c-2.464 3.293-3.727 5.465-4.043 7.287-.316 1.822 2.022-1.051 2.78 0 .758 1.05-.885 3.433.252 4.204 1.138.77 2.78-1.682 4.297-1.121s.82 2.942 1.769 3.363c.947.42.694-2.172 2.021-1.682 1.327.49 1.77 3.083 3.285 3.643 1.517.56 1.2-1.19 2.78-1.4 1.58-.211 2.843-1.262 3.538.56.695 1.821-2.527 5.675-.758 6.726 1.77 1.05 4.486-1.822 7.834-2.523 3.348-.7 1.895 3.013 5.56-.28 3.664-3.293 5.433-8.407 9.097-12.89 3.665-4.485 2.464-2.873 5.56-5.045s3.601-2.312 6.823-3.644 6.76.35 6.065-1.681c-.695-2.032-5.37-3.924-8.845-6.446s-3.411-.28-5.054-3.643-1.642-5.395-1.516-9.809c.126-4.414.821-4.484 2.022-7.847s.758-2.382 2.78-5.605 2.969-4.273 5.306-7.286 2.464-1.962 4.044-4.764c1.58-2.803 2.4-5.325 2.274-6.446-.126-1.121-1.263 0-2.78 1.962-1.516 1.961-1.58 3.363-3.285 5.885s-1.832 2.312-3.538 4.204-1.01 1.751-3.285 3.363-2.78.7-5.813 3.082c-3.032 2.382-3.917 3.854-6.317 6.446s-2.148 2.382-3.286 3.923.127.28-1.263 2.242z" stroke-width=".399"/><path d="M111.97 147.15c2.814 3.842 11.928 10.785 14.952 14.812 3.024 4.027-1.638.787-2.856 1.296-1.218.51-.672 1.065-2.016.74-1.344-.323-1.932-1.573-3.36-2.036-1.428-.463-1.176-.694-2.352.185-1.176.88-2.184 2.5-2.352 3.333-.168.833.882.37 1.68 0 .798-.37.336-1.157 1.512-1.481 1.176-.324 2.31-.417 3.192.185.882.602-.756 1.666.336 2.222 1.092.555 1.932.416 4.032 0 2.1-.417 2.772-1.204 4.368-1.667 1.596-.463 1.008-1.666 2.016-.185s1.722 3.472 2.016 6.11c.294 2.638-1.134 2.87-.84 4.444.294 1.573 1.26.74 2.016 1.851s.294 2.268 1.008 2.592c.714.324 1.596-.092 1.848-1.296.252-1.203-.294-1.759-.84-3.518s-1.722-2.962-1.344-3.517c.378-.556 1.848.37 2.856 1.296 1.008.925.42 1.064 1.176 2.407.756 1.342 1.05 2.406 1.848 2.962.798.555 1.722.88 1.344-.74-.378-1.62-1.47-3.611-2.856-5.74-1.386-2.13-1.428-1.157-2.688-2.777-1.26-1.62-1.05-1.898-2.352-3.703s-1.386-2.037-2.856-3.518c-1.47-1.481.924 1.296-3.024-2.407-3.948-3.703-8.652-9.443-12.768-12.405-4.116-2.963-6.51-3.287-3.696.555z" stroke-width=".265"/><path d="M163.64 38.32c-1.547-.922-2.454-1.44-4.268-2.765-1.814-1.325-1.494-1.325-2.988-2.534s-1.28-1.383-2.987-2.305c-1.707-.921-2.134-.633-3.841-1.382-1.707-.749-1.067-.98-2.988-1.613-1.92-.634-2.56-.749-4.695-.922-2.134-.172-2.134.173-3.84.23s-.748-.345-2.988 0-3.628.692-5.975 1.383c-2.348.692-1.601.404-3.415 1.383-1.814.98-2.027 1.152-3.841 2.534s-1.92 1.67-3.414 2.996c-1.494 1.325-.96.921-2.561 2.304s-2.188 1.497-3.841 3.226c-1.654 1.728-1.708 2.073-2.775 3.686s-.32 1.325-1.493 2.765-1.548 1.325-3.201 2.995c-1.654 1.67-1.227 1.728-3.415 3.687-2.187 1.958-2.774 1.843-5.335 4.147-2.56 2.304-2.347 2.592-4.908 5.07-2.56 2.476-2.667 2.361-5.335 4.838-2.667 2.477-3.04 2.822-5.335 5.069s-1.76 1.498-3.84 3.917c-2.081 2.42-2.348 3.11-4.482 5.76s-2.348 2.65-4.055 4.839-1.174 1.786-2.774 3.917-1.76 2.016-3.628 4.608c-1.867 2.592-2.187 3.053-3.841 5.76-1.654 2.708-1.387 2.42-2.774 5.07s-1.387 2.534-2.774 5.53c-1.388 2.995-1.761 3.628-2.775 6.45-1.013 2.823-.587 2.305-1.28 4.84-.694 2.534-1.12 3.225-1.494 5.299-.373 2.073-.107 1.613 0 2.995.107 1.383-.8 2.707.427 2.535 1.227-.173 2.08-1.325 4.481-3.226s2.561-2.016 5.122-4.378c2.56-2.362 2.347-2.88 5.121-5.069 2.774-2.189 3.521-1.67 5.975-3.687 2.454-2.016 2.188-2.073 3.842-4.377 1.653-2.304 1.547-3.11 2.774-4.839 1.227-1.728.747.518 2.134-2.074s2.187-5.126 3.414-8.294c1.227-3.169 2.187-6.337 1.494-4.378-.694 1.958-2.614 7.891-4.268 12.212-1.654 4.32-1.067 2.995-2.347 5.069s-1.28 1.325-2.775 3.226-1.653 2.188-3.2 4.377c-1.548 2.19-1.761 1.613-2.988 4.378s-1.28 3.341-1.92 6.682c-.641 3.341-.694 3.975-.641 6.682.053 2.707.053 2.765.854 4.147.8 1.383.693.576 2.347 1.383 1.654.806 2.24.576 4.268 1.843s1.974 1.67 3.841 3.226c1.867 1.555 1.547 2.304 3.628 2.995 2.08.691 3.094-.115 4.695-.23 1.6-.115.533-.23 1.707-.23s1.6.69 2.987.23 1.014-2.131 2.561-2.074c1.547.058 1.28 1.843 3.628 2.304 2.347.461 3.521-.288 5.762-.46 2.24-.173 1.44-.404 3.2-.231 1.761.173 1.975.749 3.842.922 1.867.172 1.547.288 3.628-.23 2.08-.52 2.294-.577 4.695-1.844 2.4-1.267 1.867-1.21 4.908-3.226s4.481-2.304 7.255-4.838 1.867-2.996 3.841-5.3c1.974-2.304 2.188-1.67 4.055-3.917 1.867-2.246 1.814-2.765 3.414-5.069s1.387-1.9 2.988-4.147 1.867-2.247 3.414-4.839c1.547-2.592 1.44-2.592 2.775-5.53 1.333-2.937 1.28-2.765 2.56-6.22s1.814-4.667 2.561-7.604c.747-2.938 0-1.383.427-4.148.427-2.765.907-3.053 1.28-6.912.374-3.86.16-4.723.214-8.525.053-3.802.053-4.032 0-6.682-.054-2.65-.054-2.074-.214-3.917s-.64-1.383-.426-3.456.533-2.592 1.28-4.839c.747-2.246.694-2.189 1.707-4.147 1.014-1.959 1.12-1.844 2.348-3.687 1.227-1.843 1.227-2.304 2.56-3.687 1.334-1.382.96-1.152 2.775-1.843 1.813-.691 2.027-.345 4.481-.921s3.574-.634 5.335-1.383c1.76-.749 1.174-.749 1.707-1.613.534-.864 1.067-1.152.427-1.843-.64-.691-1.12-.691-2.988-.922-1.867-.23-2.507.058-4.481 0s-2.08.058-3.414-.23c-1.334-.288-.374 0-1.921-.922z" stroke-width=".333"/></g></svg>