<?xml version="1.0" standalone="no"?>
<!DOCTYPE svg PUBLIC "-//W3C//DTD SVG 20010904//EN"
 "http://www.w3.org/TR/2001/REC-SVG-20010904/DTD/svg10.dtd">
<svg version="1.0" xmlns="http://www.w3.org/2000/svg"
 width="70.000000pt" height="66.000000pt" viewBox="0 0 70.000000 66.000000"
 preserveAspectRatio="xMidYMid meet">

<g transform="translate(0.000000,66.000000) scale(0.100000,-0.100000)"
fill="#000000" stroke="none">
<path d="M213 641 c-71 -24 -129 -66 -174 -127 l-39 -51 0 -231 0 -232 164 0
164 0 11 28 c24 60 32 129 26 213 -6 75 -4 92 15 136 36 84 60 100 188 125 62
12 112 25 112 29 0 17 -70 48 -130 59 -36 6 -104 24 -152 40 -100 35 -115 36
-185 11z"/>
</g>
</svg>
