<svg xmlns="http://www.w3.org/2000/svg" x="0" y="0" version="1.1" viewBox="0 0 1826.61 1195.821" xml:space="preserve"><path d="M750.75 854.1c-22.73-.384-44.396-3.54-65.625-9.751-35.343-10.342-68.562-25.616-100.683-43.37-55.064-30.435-105.496-67.21-152.242-109.392-44.894-40.511-76.4-89.147-95.67-146.3-15.454-45.832-26.483-92.75-37.104-139.838-5.888-26.108-12.873-51.971-19.536-77.9-2.038-7.933-5.349-14.991-14.101-18.05-1.86-.65-3.16-3.574-4.193-5.704-.895-1.846-1.045-4.052-1.657-6.666l-5.144 3.932-13.852-49.837-5.15 8.335c-.22-2.403-.567-3.778-.436-5.106 2.93-29.636-6.648-55.395-24.209-78.735-4.907-6.522-9.588-13.213-14.44-19.777-.768-1.04-1.767-2.031-2.873-2.682-35.472-20.873-71.293-41.075-110.716-53.768-11.233-3.617-22.837-6.082-34.07-9.702-6.235-2.01-12.04-5.34-18.07-8.005-1.009-.446-2.255-.365-3.246-.833-1.322-.625-2.502-1.549-3.743-2.344.816-1.078 1.413-2.752 2.48-3.143 9.968-3.648 19.803-7.996 30.084-10.385 25.188-5.851 50.946-6.494 76.574-4.575 25.546 1.912 50.966 5.489 76.457 8.185 2.13.225 4.584-.258 6.544-1.16C242.43 55.43 268.424 42.62 295.007 31.18c21.626-9.307 45.075-11.474 68.272-13.856 25.809-2.65 51.542-2.244 77.135 2.708 25.954 5.022 48.4 16.575 66.92 35.443 18.558 18.908 36.473 38.468 55.432 56.961 30.91 30.152 62.422 59.935 99.233 82.763 21.108 13.09 44.204 23.14 66.903 33.464 41.05 18.67 82.463 36.544 123.773 54.64 2.331 1.022 5.08 1.174 7.662 1.523 16.48 2.228 33.011 4.11 49.443 6.638 58.481 8.998 113.257 29.724 166.264 54.969 17.35 8.262 35.194 16.478 50.524 28.763 8.307 6.658 8.522 6.627-.712 12.215 17.002 2.499 33.942 5.581 51.018 7.386 47.824 5.056 95.88 4.093 143.856 4.224 103.656.285 207.314.1 310.97-.214 38.692-.116 77.31.914 115.854 4.286 4.369.382 8.677 1.468 13.013 2.228l-.074 1.295-7.872 1.408-.2 1.134 8.984 2.23-2.452 4.308c-13.637 0-27.755.06-41.872-.025-6.997-.043-13.991-.467-20.988-.5-4.279-.02-4.467.316-6.534 5.715 2.316.355 4.46.87 6.624.987 24.792 1.33 49.59 2.564 74.378 3.948 2.42.135 4.795 1.1 7.19 1.679l-.233 2.273-93.439 2.56-.076 1.343c1.02.249 2.037.704 3.06.715 19.132.22 38.267.344 57.398.675 1.139.02 2.25 1.617 3.375 2.48-1.133.942-2.222 2.633-3.407 2.703-7.646.455-15.312.587-22.974.757-3.66.082-7.323.014-11.163 1l92.328 20.657-.056 1.336c-3.335.28-6.668.79-10.004.807-23.164.115-46.373-.761-69.483.381-34.424 1.702-68.822 4.334-103.15 7.453-30.842 2.802-61.584 6.72-92.354 10.28-49.89 5.77-98.123 17.001-141.265 44.237-9.127 5.763-17.757 12.327-26.481 18.706-1.97 1.44-3.528 3.54-5.009 5.533-2.535 3.411-2.1 6.828 1.438 9.056 3.483 2.193 7.246 4.269 11.174 5.37 15.056 4.218 30.228 8.023 45.357 11.983.965.252 2.01.348 2.88.79 3.221 1.635 8.73.408 8.705 6.219-.028 6.51-5.822 14.188-10.943 15.09-1.9.335-3.799.672-5.777 2.055l21.443 6-.105 2.041c-2.716.966-5.37 2.187-8.158 2.853-12.946 3.096-25.944 5.98-38.886 9.089-2.382.572-5.209 1.246-6.786 2.88-7.295 7.559-16.807 8.11-26.248 8.988-36.486 3.393-73.02 6.328-109.452 10.226-24.662 2.64-49.26 6.421-72.354 16.2-22.126 9.37-40.109 24.78-57.844 40.534-39.606 35.184-79.358 70.205-118.998 105.35-31.128 27.6-68.128 40.178-109.03 42.696-3.733.23-5.177 1.79-6.879 4.929-8.646 15.944-17.355 31.877-26.715 47.407-32.766 54.362-59.784 111.428-81.393 171.08a376.239 376.239 0 0 0-5.297 15.749c-2.847 9.095-1.053 11.477 8.328 10.486 13.963-1.475 27.617.399 41.116 3.564 8.403 1.97 15.971 5.972 22.989 10.884l-.373 1.446c-5.493-.643-10.97-1.531-16.482-1.884-17.795-1.139-35.767-2.869-52.494 5.398-5.244 2.592-10.148 6.259-14.48 10.227-8.349 7.647-15.991 16.061-24.289 23.767-5.657 5.254-12.174 9.17-20.28 9.857-4.906.416-7.678 3.727-8.534 8.454-.526 2.907-.652 5.886-1.072 9.936-7.02-14.045-6.806-26.659 2.377-38.896l-1.044-.731c-1.968.5-4.017.793-5.89 1.532-22.695 8.947-46.182 15.068-70.142 19.338-9.442 1.683-18.976 1.518-27.802-3.17-11.687-6.21-22.123-4.663-32.267 3.87-6.79 5.711-14.483 10.35-22.402 14.802 3.161-10.456 9.08-19.106 17.436-25.317 8.21-6.102 17.606-10.609 27.11-16.186-2.98 0-5.38.004-7.78 0-5.647-.009-11.328-.397-16.935.078-5.19.44-10.638.997-15.37 2.956-6.525 2.701-12.485 6.768-18.687 10.25l-.913-.929 16.497-17.383c-8.177-2.795-16.552-6.13-25.199-8.447-5.745-1.54-11.56-.272-16.62 3.388a1688.641 1688.641 0 0 1-21.583 15.34 19.49 19.49 0 0 1-6.506 2.995c3.233-10.151 9.13-18.734 17.45-24.911 8.172-6.067 17.516-10.555 26.976-16.105-2.04-.092-3.81-.236-5.583-.24-6.815-.019-13.656-.35-20.437.14-4.698.34-9.627 1.116-13.891 2.98-6.497 2.842-12.508 6.795-18.905 10.376 2.491-6.822 19.851-22.619 29.689-26.09 11.496-4.056 23.101-4.198 34.992-3.544 21.122 1.162 42.258 2.414 63.4 2.685 7.262.093 14.562-2.63 21.84-4.088.478-.096.91-.409 1.38-.574 28.668-10.113 50.157-28.347 65.532-54.808 13.16-22.65 25.618-45.549 35.619-69.751 13.79-33.372 27.48-66.784 41.195-100.186.621-1.513 1.06-3.099 1.833-5.39zm67.654-2.349c-8.81.454-17.607 1.041-26.414 1.291-3.272.093-5.026 1.438-6.582 4.217-7.73 13.802-15.68 27.48-23.525 41.217-28.572 50.039-51.238 102.697-69.552 157.268-2.821 8.406-.923 10.064 8.046 10.087 10.94.028 21.894.719 32.808 1.564 2.768.214 4.217-.161 5.592-2.555 6.135-10.683 13.042-20.966 18.56-31.951 22.13-44.068 39.87-90.042 58.58-135.608 6.18-15.052 6.44-29.575 2.487-45.53zm-89.067 227.239c-4.483 0-7.78-.319-10.996.055-14.298 1.659-27.684 5.276-37.956 16.537-6.841 7.5-14.315 14.423-21.524 21.587-1.426 1.417-2.935 2.75-4.405 4.123l1.175 1.641c28.186-7.556 54.468-18.399 73.706-43.943zm-135.075 39.949.124.825c8.57.44 17.14.925 25.715 1.262.974.039 2.488-.473 2.887-1.203 2.034-3.724 3.784-7.603 6.302-12.81l-35.028 11.926z"/></svg>