<?xml version="1.0" standalone="no"?>
<!DOCTYPE svg PUBLIC "-//W3C//DTD SVG 20010904//EN"
 "http://www.w3.org/TR/2001/REC-SVG-20010904/DTD/svg10.dtd">
<svg version="1.0" xmlns="http://www.w3.org/2000/svg"
 width="112.000000pt" height="83.000000pt" viewBox="0 0 112.000000 83.000000"
 preserveAspectRatio="xMidYMid meet">

<g transform="translate(0.000000,83.000000) scale(0.100000,-0.100000)"
fill="#000000" stroke="none">
<path d="M65 624 c-11 -3 -30 -7 -42 -10 l-23 -4 0 -305 0 -305 121 0 120 0
17 38 c10 22 16 64 16 107 1 61 -4 78 -33 133 -33 61 -33 63 -15 77 41 30 100
38 182 25 155 -24 282 -79 355 -152 40 -40 65 -51 48 -20 -14 26 -81 87 -128
116 -52 32 -139 66 -257 101 -94 28 -127 52 -171 125 -11 18 -31 41 -45 51
-25 19 -109 31 -145 23z"/>
</g>
</svg>
