<?xml version="1.0" standalone="no"?>
<!DOCTYPE svg PUBLIC "-//W3C//DTD SVG 20010904//EN"
 "http://www.w3.org/TR/2001/REC-SVG-20010904/DTD/svg10.dtd">
<svg version="1.0" xmlns="http://www.w3.org/2000/svg"
 width="102.000000pt" height="73.000000pt" viewBox="0 0 102.000000 73.000000"
 preserveAspectRatio="xMidYMid meet">

<g transform="translate(0.000000,73.000000) scale(0.100000,-0.100000)"
fill="#000000" stroke="none">
<path d="M225 697 c-59 -28 -115 -87 -145 -154 -17 -36 -24 -75 -29 -163 -6
-109 -7 -115 -28 -118 -23 -3 -23 -6 -23 -133 l0 -129 221 0 222 0 -6 55 c-4
36 -25 98 -60 178 -30 67 -52 125 -48 129 3 4 35 10 71 13 l65 7 134 -87 c163
-106 184 -115 275 -120 l71 -4 -55 10 c-127 24 -206 70 -344 202 -85 80 -88
86 -82 118 17 94 17 114 -2 145 -42 66 -154 90 -237 51z"/>
</g>
</svg>
