<?xml version="1.0" standalone="no"?>
<!DOCTYPE svg PUBLIC "-//W3C//DTD SVG 20010904//EN"
 "http://www.w3.org/TR/2001/REC-SVG-20010904/DTD/svg10.dtd">
<svg version="1.0" xmlns="http://www.w3.org/2000/svg"
 width="60.000000pt" height="65.000000pt" viewBox="0 0 60.000000 65.000000"
 preserveAspectRatio="xMidYMid meet">

<g transform="translate(0.000000,65.000000) scale(0.100000,-0.100000)"
fill="#000000" stroke="none">
<path d="M0 330 l0 -320 50 31 c109 67 187 86 375 90 l130 3 11 -39 c14 -52
29 -29 28 45 -2 90 -36 147 -140 231 -11 8 -28 18 -37 22 -9 3 -16 10 -15 14
1 4 -5 24 -14 44 -13 30 -32 45 -100 82 -45 25 -129 61 -185 81 l-103 35 0
-319z"/>
</g>
</svg>
