<svg xmlns="http://www.w3.org/2000/svg" width="1813.333" height="2697.333" viewBox="0 0 1360 2023" xmlns:v="https://vecta.io/nano"><path d="M579.38 0h4.3c19.74 15.23 7.27 46.33 5.11 67.8-6.98 26.62-13.49 54.4-25.94 78.89-7.03 5.33-13.62 30.14.77 24.39 34.05-45.08 55.8-97.5 93.78-139.7 7.73-6.77 15.12-20.89 27.29-14.1 5.35 34.54-9.85 67.45-23.02 98.61-3.47 9.14 10.87 6.43 12.19-.06 12.9-20.28 31.17-36.02 47.31-53.68 7.18-3.99 12.65-12.77 22-10.49 11.19 17.33-1.91 37.81-4.45 56.82-5.35 7.6-8.88 16.86-8.06 26.31 8.19 3.51 12.38-2.89 15.31-8.87 7.76-3.75 15.3-14.4 24.61-8.53 16.65 23.83-1.41 52.27-6.22 77.34 18.89-6.42 31.98 17.33 23.05 31.99 10.78 6.49-4.35 23.63-8.64 32.46-3.82 8.8 8.66 3.01 11.78 8.27 13.89 14.25 8.8 35.92 3.85 52.83-.92 5.92-10.34 13.11-4.56 18.78 20.25 11.76 14.59 39.51 9.73 58.32-5.19 6.63-8.81 15.06-8.9 23.15 11.8 2.02 26.83-8.69 35.69 3.34 5.39 17.93.92 38.07-8.15 54.13-3.66 9.13 8.25 12.52 6.92 21.13 1.78 21.6-3.49 47.65-24.25 58.97-2.02 9.89 14.33 13.75 13.07 24.35 1.69 9.1-6.29 16.86-4.62 25.86 9.17 9.96 14.54 24.3 8.7 37.28 15.57 13.78 19.16 36.13 13.82 55.35 3.7 14.02 15.19 29.33 8.19 44.89 3.82 10.37 10.06 20.02 10.34 31.52 12.04 14.36-17.97 28.45-2.73 40.35 0 13.68 12.83 28.23 4.01 41.05.21 7.74 3.7 23.05 14.77 15.99 24.65-55.93 42.95-114.76 64.94-171.27 3.07-6.42 6.18-14.09 13.16-16.96 4.17-13.51 19.27-20.49 32.55-17.22 7.08 11.1 35.79 9.84 40.62 27.97 8.09-1.67 13.2 5.92 20.97 5.94 8.34 7.35 18.27-4.55 26.81 2.43 5.62 3.29 17.69-.47 13.3 9.64 5.37 1.77 14.18-5.87 15.9 2.09 19.8 15.33 41.02 30.46 53.16 53.03 12.17 2.53 27.5 7.56 28.69 22.28 7.6-.52 5.85-2.47 13.11-.13 1.58-7.94.59 4.69 3.56 6.55 10.06.35 19.54 12.11 15.82 20.36 9.76-1.66 9.71 9.61 14.83 14.68 5.74 6.7 7.53 15.57 11.97 23.01 7.74 7.16 17.91 11.28 25.54 18.63 8.85 8.03-11.92 15.98-1.78 24.84 9.85-2.71 17.99-6.41 27.6.14 3.16 9.44 12.68 14.89 16.84 24.35-26.68 15.08-58.31 15.14-87.91 12.03l.04 5.52c29.32 3.13 58.47 10.54 88.13 7.69 8.25 8.95 4.01 22.91 8.19 34.07 3.68 7.62-8.25 7.74-5.56 15.45.56 4.33 11.06-5.48 7.41 3.98 3.28 4.11 17.24-.9 16.17 7.6-11.32 9.42 10.85 8.9 7.99 20.53-2.52 9.19 5.1 13.82 9.26 20.31-4.05 11.8-.61 26.23-10.16 36.45-7.66 5.87 4.12 9.57 1.92 15.9-.69 4.1-6.23 13.06 2.82 11.45-.39 8.21-.55 17.01 2.09 24.62 6.74 5.89-1.76 24.02 12.43 24.24-2.28 1.08-4.13 4.91-1.03 6.3 6.76 2.95-3.76 16.72 4.19 17.8v4.45c-6.39 10.22-13.84 19.56-6.04 30.72 7.63 13.24-15.02 16.79-10.38 31.05 7.71 11.55-25.95 16.45-7.07 22.47 6.96 8.73-7.2.83-8.64 7.07-4.66 5.4-4.76 12.36-7.51 17.88 19.12 1.71 29.18 29.13 16.01 42.3-1.87 3.73 1.83 5.92 2.7 9.03-.68 5.84-9.11 5.82-6.76 12.74-8.73 4.18-18.04-1.58-27.11-.44-3.21 9.21 14.04 9.16 9.29 19.03-6.21 21.39-2.94 46.92-18.54 65.03-8.83-1.91-10.16 2.94-7.89 9.57-5.99-6.04-14.91-14.84-23.87-8.48.58 8.62 14.04 11.82 19.13 17.46-6.07 12.9-19.18 23.96-34.24 21.59-6.86 17.24-16.94 37.7-32.87 45.66-4.77 6.32-23.61 5.22-18.56 16.88-13.54 5.18-24.45 10.9-37.16 17.5 10.26 12.04-13.2 12-15.46 22.37-2.74 8.42-15.84 3.47-16.38 12.86-11.91-5.47-18.93 10.51-29.51 8.15-4.61-11.08-7.08-1.55-8.78 3.9-18.36-4.57-22.15 17.36-36.24 24.03-3.79-5.36-9.54-9.96-16.61-8.48-2.32 7.47 8 11.92 6.16 19.09-4.22 3.67-12.11-.82-13.74 5.36-36.7-7.04-61.47-38.81-79.1-69.65-17.56-28.85-36.97-56.55-55.14-84.91-21.94-44.86-49.12-87.58-66.64-134.49-16.4-1.81-32.24 5.69-48.55 5.58-3.79 5.62 3.79 4.73 3.43 8.67-7.71.72-15.36 3.17-21.63 7.83-2.95 6.35 3.74 9.23 5.52 13.72-8.76-2.15-27.81 4.47-17.46 15.69-5.44 5.67-19.3 12.28-29.9 15.38-.52 7.79 5.62 13.72 7.12 21.23-11.8 3.54-21.96 11.49-34.19 13.64-.95 7.55 4.13 14.33 3.22 21.97-11.83 3.56-20.12 13.89-33.12 14.88-13.24 2.92 5.16 19.63-4.23 26.79-11.82 5.24-21.02 15.21-33.99 18.09-9.41 16.44-24.08 35.95-45.94 35.26-5.08 16.05 7.66 17.6 18.72 20.87 2.77 12.77-6.63 29.5-21.24 30.79-9.64 4.07-17.28-4.49-26.56-4.07.32 10.78 6.38 20.56 6.22 31.44-2.4 14.02-10.55 26.02-18.37 37.53-7.14 5.51-18.7 11.7-26.18 3.46-11.59-4.62-5.6 10.8-4.91 16.72-.62 8.51-2.13 17.97-5.38 25.49-8.88-1.52-27.63-14.51-29.12-2.53 8.59 3.19 17.23 6.33 25.35 10.65-7.42 9.61-16.31 22.24-30.02 20.47-5.93-1.46-8.24-10.39-15.34-7.88.12 10.85 1.94 22.95-4.45 32.58-4.95-2.6-17.74-8.84-15.75 1.42-.04 6.36 10.76 2.84 10.53 9.32-12.74-4.96-24.95-13.62-38.39-15.53-2.8 11.33 3.64 24.91 2.43 37.22-2.55 1.54-8.32.73-5.37 6.04.47 10.42-3.98 20.07-5.69 30.19-5.82-.85-11.44-3.45-17.46-2.61-2.55 7.56 5.33 9.31 10.33 11.37.35 10.13-12.04 12.6-18.92 16.59-9.29 5.96-11.93-9.28-20.52-6.52.57 12.07-3.34 23.44-5.27 35.19-11.22-3.29-20.4-13.26-32.64-13.45-2.25 13.89 21.92 12.07 19.55 26.24-5.9 6.28-17.2 15.49-25.68 8.3-13.04-10.72-28.28-22.28-45.8-22.51 1.9 12.69 22.48 14.72 29.28 26.5.91 11.97-5.55 22.48-9.33 33.39-8.26 7.04-21.45 18.75-30.62 7.08-8.22-4.25-6.67-14.76-13.76-19.44-3.5-7.37-5.33-21.51-14.68-21.4-1.55 27.29-8.55 60.93-36.77 72.58h-3.39c-15.24-8.35-16.17-26.77-25.56-39.73-5.24-9.2 1.24-35.65-15.24-32.79-.49 24.86-12.23 50.66-35.36 61.82-13.3 4.81-16.09-11.94-21.43-19.81-4.07-21.06-9.31-42.26-9.87-64.16.11-5.72.19-17.8-9.22-13.99-3.06 11.26-9.87 22.27-6.21 34.35-13.51-10.09-25.09-22.75-37.04-34.51-18.9-4.54-11.74 22.78-15.71 32.83-2.07-5.77-2.31-12-4.49-17.73v-24.45c10.7-78.16 21.42-160.15 49.92-235.79 14.55-28.18 15.65-61.37 30.68-89.48 2.44-8.69 9.13-16.07 9.12-25.35-12.86.04-14.6 20.62-25.47 24.2-4.07-5.79-1.3-13.77-.09-20.21 8.51-29.3 25.44-55.36 43.34-79.68 48.99-59.44 106.69-110.98 159.26-167.13 1.49-7.59-8.79-8.14-13.36-10.8-20.93-10.85-43.91-19.21-61.03-36.03-16.63-5.41-31.86-13.84-49.16-17.73-8.43-1.34-17.93-8.43-25.78-1.95-34.86-4.73-60.64 27.36-80.76 47.47-5.94-10.23-5.63-24.24.45-34.25 11.65-12.51 6.61-32.21 19.62-43.96 5.32-19.54-13.29-39.96-2.58-59.17 9.29-30.35 40.04-45.26 66.29-58.52 23.02-13.19 50.57-7.5 75.74-11.23 20.82-5.81 40.8 6.81 61.88 3.18 20.91 8.56 51.07 16.66 68.63-2.73 10.58-14.17 30.58-25.9 27.64-46.23-2.57-59.94-10.85-119.32-25.64-177.1-8.55-23.51-12.79-48.55-17.76-73.23-8.74-13.27-3.28-30.72-12.03-44.17-8.44-52.09.81-111.88 38.76-150.52 5.42-31.14 20.82-59.31 29.33-89.46 33.51-123.02 97.03-235 138.83-355.12 16.41-40.25 30.74-81.29 51.56-119.51C563.94 20.11 568.42 7.25 579.38 0M61.2 1869.86c.08 7.65-6.94 26.83 4.09 29.84-2.14-9.83-2.44-22-4.09-29.84z"/></svg>