<?xml version="1.0" standalone="no"?>
<!DOCTYPE svg PUBLIC "-//W3C//DTD SVG 20010904//EN"
 "http://www.w3.org/TR/2001/REC-SVG-20010904/DTD/svg10.dtd">
<svg version="1.0" xmlns="http://www.w3.org/2000/svg"
 width="103.000000pt" height="77.000000pt" viewBox="0 0 103.000000 77.000000"
 preserveAspectRatio="xMidYMid meet">

<g transform="translate(0.000000,77.000000) scale(0.100000,-0.100000)"
fill="#000000" stroke="none">
<path d="M178 522 c-25 -26 -61 -72 -81 -103 -19 -31 -49 -66 -66 -78 l-31
-22 0 -160 0 -159 164 0 164 0 30 48 c47 73 54 98 62 222 7 99 11 117 29 131
21 17 21 18 -31 72 -59 61 -94 81 -154 90 -38 6 -43 4 -86 -41z"/>
</g>
</svg>
